<?xml version="1.0" encoding="utf-8"?>
<!-- Generator: Adobe Illustrator 21.1.0, SVG Export Plug-In . SVG Version: 6.00 Build 0)  -->
<svg version="1.1" id="Capa_1" xmlns="http://www.w3.org/2000/svg" xmlns:xlink="http://www.w3.org/1999/xlink" x="0px" y="0px"
	 viewBox="0 0 57.8 50" style="enable-background:new 0 0 57.8 50;" xml:space="preserve">
<style type="text/css">
	.st0{fill:#FFFFFF;}
</style>
<g>
	<g>
		<path class="st0" d="M19.6,22.5c4.6,0,8.4-5,8.4-11.2C28,5,24.2,0,19.6,0c-4.6,0-8.4,5-8.4,11.2C11.3,17.4,15,22.5,19.6,22.5z"/>
		<path class="st0" d="M44.4,33.4c-0.2-0.2-0.3-0.5-0.4-0.6c-1.9-4-7-8.7-15.3-8.8l-0.3,0c-8.2,0-13.3,4.5-15.3,8.7
			c-0.1,0.1-0.2,0.3-0.4,0.5c-0.2,0.2-0.4,0.5-0.5,0.7c-1.7,2.7-2.6,5.7-2.5,8.5c0.1,3,1.4,5.3,3.5,6.7c0.9,0.5,1.8,0.8,2.7,0.8
			c2,0,3.8-1.1,5.9-2.4c1.3-0.8,2.7-1.7,4.3-2.3c0.2-0.1,0.9-0.1,2-0.1c1.4,0,2.4,0.1,2.6,0.2c1.5,0.7,2.8,1.5,4.1,2.4
			c2,1.3,3.8,2.5,5.8,2.5c0.9,0,1.7-0.2,2.5-0.7c4.3-2.5,5.2-9.3,1.8-15.1C44.8,33.9,44.6,33.6,44.4,33.4z"/>
		<path class="st0" d="M37.4,22.5c4.6,0,8.4-5,8.4-11.2C45.8,5,42,0,37.4,0c-4.6,0-8.4,5-8.4,11.2C29.1,17.4,32.8,22.5,37.4,22.5z"
			/>
		<path class="st0" d="M51.2,16.7c-3.7,0-6.6,3.8-6.6,8.7c0,4.9,2.9,8.7,6.6,8.7c3.7,0,6.6-3.8,6.6-8.7
			C57.8,20.5,54.9,16.7,51.2,16.7z"/>
		<path class="st0" d="M13.2,25.4c0-4.9-2.9-8.7-6.6-8.7c-3.7,0-6.6,3.8-6.6,8.7c0,4.9,2.9,8.7,6.6,8.7S13.2,30.3,13.2,25.4z"/>
	</g>
</g>
</svg>
