<?xml version="1.0" encoding="utf-8"?>
<!-- Generator: Adobe Illustrator 21.1.0, SVG Export Plug-In . SVG Version: 6.00 Build 0)  -->
<svg version="1.1" id="Capa_1" xmlns="http://www.w3.org/2000/svg" xmlns:xlink="http://www.w3.org/1999/xlink" x="0px" y="0px"
	 viewBox="0 0 512 512" style="enable-background:new 0 0 512 512;" xml:space="preserve">
<style type="text/css">
	.st0{fill:#FFFFFF;}
</style>
<path class="st0" d="M4.5,508.4c4.8,4.8,12.6,4.8,17.4,0l73.7-73.7l8.7,8.7c10,10,23.2,15.4,37.3,15.4c14.1,0,27.3-5.5,37.3-15.4
	l244.3-244.4l14.7,14.7c3.6,3.6,8.4,5.6,13.5,5.6c5.1,0,9.9-2,13.5-5.6l0.3-0.3c7.4-7.5,7.4-19.6,0-27l-28.5-28.5l40.2-40.2l1.1,1.1
	c3.6,3.6,8.5,5.6,13.6,5.6c5.1,0,10-2,13.6-5.7l0.3-0.3c7.5-7.5,7.5-19.7,0-27.2L419.9,5.6C416.3,2,411.5,0,406.3,0
	c-5.1,0-10,2-13.6,5.6l-0.3,0.3c-7.5,7.5-7.5,19.7,0,27.2l1.2,1.1l-40.2,40.2l-28.4-28.4c-3.6-3.6-8.4-5.6-13.5-5.6
	c-5.1,0-9.9,2-13.5,5.6l-0.3,0.3c-7.4,7.5-7.4,19.6,0,27l15,15L68.3,332.8c-20.6,20.6-20.5,54,0,74.6l9.9,9.9L4.5,491
	C-0.4,495.8-0.4,503.6,4.5,508.4z M85.7,350.2l127.7-127.7l12.8,12.8l-107,107c-4.8,4.8-4.8,12.6,0,17.4c0.4,0.4,0.8,0.7,1.2,1
	c0.3,0.4,0.6,0.8,1,1.2l24.8,24.8c4.8,4.8,12.6,4.8,17.4,0c4.8-4.8,4.8-12.6,0-17.4l-18.2-18.2l12.1-12.1l18.2,18.2
	c4.8,4.8,12.6,4.8,17.4,0c4.8-4.8,4.8-12.6,0-17.4l-18.2-18.2l12.1-12.1l18.2,18.2c4.8,4.8,12.6,4.8,17.4,0c4.8-4.8,4.8-12.6,0-17.4
	L204.3,292l12.1-12.1l18.2,18.2c4.8,4.8,12.6,4.8,17.4,0c4.8-4.8,4.8-12.6,0-17.4l-18.2-18.2l9.8-9.8l45.5,45.4L161.4,425.9
	c-5.3,5.3-12.4,8.2-19.9,8.2c-7.5,0-14.6-2.9-19.9-8.2L85.7,390C74.8,379,74.8,361.2,85.7,350.2z"/>
</svg>
