<?xml version="1.0" encoding="utf-8"?>
<!-- Generator: Adobe Illustrator 21.1.0, SVG Export Plug-In . SVG Version: 6.00 Build 0)  -->
<svg version="1.1" id="Capa_1" xmlns="http://www.w3.org/2000/svg" xmlns:xlink="http://www.w3.org/1999/xlink" x="0px" y="0px"
	 viewBox="0 0 43.2 50" style="enable-background:new 0 0 43.2 50;" xml:space="preserve">
<style type="text/css">
	.st0{fill:#FFFFFF;}
</style>
<g>
	<g>
		<path class="st0" d="M6.8,26.2c0.1,1,0.7,2,1.6,2.5c0.8,0.4,1.6,0.8,2.4,1C10.4,31.2,9.5,33.5,8,36c-1.5,2.3-1.5,5.1,0,7.7
			C10,47.5,14.7,50,19.5,50c3.3,0,6.2-1.5,8.3-4.3c2.9-3.9,3.5-9.8,1.7-15.6c-1.7-5.4,0.6-8.2,2.1-9.5c1.2,1.2,2.9,1.9,4.7,1.9
			c3.7,0,6.8-3,6.8-6.8S39.9,9,36.2,9c-3.7,0-6.8,3-6.8,6.8c0,0.5,0.1,1,0.2,1.5c-2.8,2.1-6.1,6.7-3.8,14c1.4,4.6,1,9.2-1.2,12.2
			c-0.9,1.2-2.6,2.7-5.2,2.7c-3.4,0-6.8-1.8-8.2-4.4c-0.5-0.9-1-2.4-0.1-3.8c2-3.2,3-6.3,3.5-8.1c1.1-0.2,2.2-0.5,3.3-1.1
			c0.9-0.5,1.5-1.4,1.6-2.4c4.5-4,6.5-11.3,6.7-11.8c0.2-0.9-0.2-1.8-0.9-2.2C26,6.9,24,4.2,22.7,3.1c0.1-0.5-0.1-1.1-0.6-1.4
			l-2.2-1.5c-0.6-0.4-1.3-0.2-1.6,0.4l-1.1,2.1c-0.3,0.6,0,1.3,0.6,1.5l2.5,0.7c0.6,0.2,1.4-0.1,1.8-0.7c1,1.1,2.5,3.4,2,8
			c-0.7,0.1-1.3,0.6-1.5,1.4c-0.6,2.2-2.4,6.7-5,9.4c-0.8-0.3-1.8-0.3-2.6,0.1c-0.6,0.3-1.1,0.4-1.7,0.5h-0.1
			c-0.6,0-1.2-0.2-1.7-0.5c-0.8-0.5-1.8-0.5-2.6-0.2c-2.6-2.7-4.3-7.2-4.9-9.3c-0.2-0.7-0.8-1.2-1.5-1.4c-0.5-4.5,1-6.9,2-8
			c0.4,0.6,1.1,0.9,1.8,0.7l2.5-0.7c0.7-0.2,1-0.9,0.6-1.5L8.4,0.6C8.1,0,7.3-0.2,6.7,0.2L4.5,1.7C4,2,3.8,2.5,3.9,3.1
			c-1.2,1.1-3.2,3.9-2.6,9.4c-0.8,0.4-1.2,1.3-0.9,2.2C0.4,15,2.5,22.1,6.8,26.2z M36.2,13.1c1.5,0,2.6,1.2,2.6,2.6
			c0,1.5-1.2,2.6-2.6,2.6c-1.5,0-2.6-1.2-2.6-2.6C33.5,14.3,34.7,13.1,36.2,13.1z"/>
	</g>
</g>
</svg>
