<?xml version="1.0" encoding="utf-8"?>
<!-- Generator: Adobe Illustrator 21.1.0, SVG Export Plug-In . SVG Version: 6.00 Build 0)  -->
<svg version="1.1" id="Layer_1" xmlns="http://www.w3.org/2000/svg" xmlns:xlink="http://www.w3.org/1999/xlink" x="0px" y="0px"
	 viewBox="0 0 57.9 50" style="enable-background:new 0 0 57.9 50;" xml:space="preserve">
<style type="text/css">
	.st0{fill:#FFFFFF;}
</style>
<g>
	<path class="st0" d="M50.9,34c-5.4-2-5.1-1.2-5.1-5c0-2.4,1.2-1.5,2-6.2c0.3-1.8,0.5-0.6,1.2-3.6c0.3-1.5-0.2-1.7-0.2-2.4
		c0.1-0.7,0.1-1.4,0.3-2.9c0.2-1.9-1.5-6.8-7.5-6.8S34,12,34.2,13.9c0.1,1.5,0.2,2.2,0.3,2.9c0.1,0.7-0.5,0.8-0.2,2.4
		c0.6,2.9,0.9,1.7,1.2,3.6c0.8,4.7,2,3.8,2,6.2c0,1.7,0.4,2.5-1.9,3.6c0.7,0.2,1.5,0.5,2.5,0.9c7.1,2.7,6.9,5.3,7.1,6.5
		c0.1,0.8,0.2,7.6,0.2,10h12.7c0,0,0-10.5-0.2-11.7C57.7,37.3,56.4,36.1,50.9,34z"/>
	<path class="st0" d="M42,50c0,0,0-1.8,0-4c0-2.4-0.1-5.2-0.2-6c-0.2-1.2-1.9-2.9-8.9-5.6c-1-0.4-1.8-0.7-2.5-0.9
		c-4.3-1.5-4-2-4-6.2c0-3.2,1.6-1.1,2.6-7.1c0.4-2.4,0.7-0.8,1.5-4.6c0.4-2-0.3-2.1-0.2-3.1c0.1-1,0.2-1.8,0.3-3.7
		C30.7,6.3,28.6,0,20.9,0s-9.8,6.3-9.6,8.7c0.2,1.9,0.2,2.8,0.4,3.7c0.1,1-0.7,1.1-0.2,3.1c0.8,3.8,1.1,2.2,1.5,4.6
		c1,6,2.5,3.9,2.5,7.1c0,4.9,0.4,4.5-6.5,7.2C1.9,37.1,0.2,38.8,0,40c-0.3,1.6-0.3,10-0.3,10h21.2H42z"/>
</g>
</svg>
