<?xml version="1.0" encoding="utf-8"?>
<!-- Generator: Adobe Illustrator 21.1.0, SVG Export Plug-In . SVG Version: 6.00 Build 0)  -->
<svg version="1.1" id="Layer_1" xmlns="http://www.w3.org/2000/svg" xmlns:xlink="http://www.w3.org/1999/xlink" x="0px" y="0px"
	 viewBox="0 0 36.1 50" style="enable-background:new 0 0 36.1 50;" xml:space="preserve">
<style type="text/css">
	.st0{fill:#FFFFFF;}
</style>
<g>
	<g>
		<g>
			<path class="st0" d="M23.7,37.3c-0.4,0-0.7-0.1-1-0.4l-4.8-4.8c-0.7,1.1-1.2,2.4-1.2,3.9c0,3.8,3.1,7,7,7c3.4,0,6.2-2.4,6.8-5.6
				L23.7,37.3L23.7,37.3z"/>
			<path class="st0" d="M23.7,29c-1.4,0-2.8,0.4-3.9,1.2l4.4,4.4h6.3C29.9,31.4,27.1,29,23.7,29z"/>
			<path class="st0" d="M34.7,5.5h-5.6v1.6c0,2.2-1.8,3.9-3.9,3.9H10.9C8.8,11.1,7,9.3,7,7.2V5.5H1.4C0.6,5.5,0,6.2,0,7v41.6
				C0,49.4,0.6,50,1.4,50h33.3c0.8,0,1.4-0.6,1.4-1.4V7C36.1,6.2,35.5,5.5,34.7,5.5z M4.2,15.2h13.9c0.7,0,1.4,0.6,1.4,1.4
				c0,0.7-0.6,1.4-1.4,1.4H4.2c-0.7,0-1.4-0.6-1.4-1.4C2.8,15.8,3.5,15.2,4.2,15.2z M12.5,29H4.2c-0.7,0-1.4-0.6-1.4-1.4
				c0-0.7,0.6-1.4,1.4-1.4h8.3c0.7,0,1.4,0.6,1.4,1.4C13.9,28.4,13.3,29,12.5,29z M12.5,23.5H4.2c-0.7,0-1.4-0.6-1.4-1.4
				c0-0.7,0.6-1.4,1.4-1.4h8.3c0.7,0,1.4,0.6,1.4,1.4C13.9,22.8,13.3,23.5,12.5,23.5z M23.7,45.6c-5.3,0-9.7-4.3-9.7-9.7
				c0-5.3,4.3-9.7,9.7-9.7c5.3,0,9.7,4.3,9.7,9.7C33.4,41.3,29,45.6,23.7,45.6z"/>
			<path class="st0" d="M10.9,8.4h14.3c0.7,0,1.2-0.5,1.2-1.2V4c0-0.7-0.5-1.2-1.2-1.2h-4.4c-0.7,0-1.4-0.6-1.4-1.4
				c0-0.8-0.6-1.4-1.4-1.4c-0.8,0-1.4,0.6-1.4,1.4c0,0.7-0.6,1.4-1.4,1.4h-4.4c-0.7,0-1.2,0.5-1.2,1.2v3.2
				C9.7,7.9,10.3,8.4,10.9,8.4z"/>
		</g>
	</g>
</g>
</svg>
