<?xml version="1.0" encoding="utf-8"?>
<!-- Generator: Adobe Illustrator 21.1.0, SVG Export Plug-In . SVG Version: 6.00 Build 0)  -->
<svg version="1.1" id="Capa_1" xmlns="http://www.w3.org/2000/svg" xmlns:xlink="http://www.w3.org/1999/xlink" x="0px" y="0px"
	 viewBox="0 0 20 21.7" style="enable-background:new 0 0 20 21.7;" xml:space="preserve">
<style type="text/css">
	.st0{fill:#D80027;}
</style>
<g>
	<g>
		<path class="st0" d="M10,11.7c0.5,0,0.8-0.2,1.2-0.5c0.3-0.3,0.5-0.7,0.5-1.2V1.7c0-0.5-0.2-0.8-0.5-1.2C10.8,0.2,10.5,0,10,0
			S9.2,0.2,8.8,0.5C8.5,0.8,8.3,1.2,8.3,1.7V10c0,0.5,0.2,0.8,0.5,1.2C9.2,11.5,9.5,11.7,10,11.7z"/>
		<path class="st0" d="M18.9,7.2c-0.7-1.4-1.7-2.6-2.9-3.5c-0.4-0.3-0.8-0.4-1.2-0.3c-0.5,0.1-0.8,0.3-1.1,0.7
			c-0.3,0.4-0.4,0.8-0.3,1.2c0.1,0.5,0.3,0.8,0.6,1.1c0.9,0.6,1.5,1.4,2,2.4c0.5,0.9,0.7,1.9,0.7,3c0,0.9-0.2,1.8-0.5,2.6
			c-0.3,0.8-0.8,1.5-1.4,2.1c-0.6,0.6-1.3,1.1-2.1,1.4c-0.8,0.3-1.7,0.5-2.6,0.5c-0.9,0-1.8-0.2-2.6-0.5c-0.8-0.3-1.5-0.8-2.1-1.4
			c-0.6-0.6-1.1-1.3-1.4-2.1c-0.3-0.8-0.5-1.7-0.5-2.6c0-1.1,0.2-2,0.7-3S5.1,7,6,6.3c0.4-0.3,0.6-0.6,0.6-1.1
			c0.1-0.5,0-0.9-0.3-1.2C6,3.6,5.7,3.4,5.2,3.4C4.7,3.3,4.3,3.4,3.9,3.7C2.7,4.6,1.7,5.8,1.1,7.2C0.3,8.6,0,10.1,0,11.7
			c0,1.4,0.3,2.7,0.8,3.9s1.2,2.3,2.1,3.2s2,1.6,3.2,2.1s2.5,0.8,3.9,0.8s2.7-0.3,3.9-0.8s2.3-1.2,3.2-2.1c0.9-0.9,1.6-2,2.1-3.2
			c0.5-1.2,0.8-2.5,0.8-3.9C20,10.1,19.7,8.6,18.9,7.2z"/>
	</g>
</g>
</svg>
